<?xml version="1.0" encoding="utf-8" standalone="no"?>
<!DOCTYPE svg PUBLIC "-//W3C//DTD SVG 1.1//EN"
  "http://www.w3.org/Graphics/SVG/1.1/DTD/svg11.dtd">
<!-- Created with matplotlib (https://matplotlib.org/) -->
<svg height="288pt" version="1.1" viewBox="0 0 432 288" width="432pt" xmlns="http://www.w3.org/2000/svg" xmlns:xlink="http://www.w3.org/1999/xlink">
 <defs>
  <style type="text/css">
*{stroke-linecap:butt;stroke-linejoin:round;}
  </style>
 </defs>
 <g id="figure_1">
  <g id="patch_1">
   <path d="M 0 288 
L 432 288 
L 432 0 
L 0 0 
z
" style="fill:none;"/>
  </g>
  <g id="axes_1">
   <g id="patch_2">
    <path d="M 54 252 
L 126.782609 252 
L 126.782609 34.56 
L 54 34.56 
z
" style="fill:none;"/>
   </g>
   <g id="matplotlib.axis_1">
    <g id="xtick_1">
     <g id="line2d_1">
      <defs>
       <path d="M 0 0 
L 0 3.5 
" id="m73b4aa4c58" style="stroke:#000000;stroke-width:0.8;"/>
      </defs>
      <g>
       <use style="stroke:#000000;stroke-width:0.8;" x="71.343514" xlink:href="#m73b4aa4c58" y="252"/>
      </g>
     </g>
     <g id="text_1">
      <!-- 1 -->
      <defs>
       <path d="M 12.40625 8.296875 
L 28.515625 8.296875 
L 28.515625 63.921875 
L 10.984375 60.40625 
L 10.984375 69.390625 
L 28.421875 72.90625 
L 38.28125 72.90625 
L 38.28125 8.296875 
L 54.390625 8.296875 
L 54.390625 0 
L 12.40625 0 
z
" id="DejaVuSans-49"/>
      </defs>
      <g transform="translate(68.162264 266.598437)scale(0.1 -0.1)">
       <use xlink:href="#DejaVuSans-49"/>
      </g>
     </g>
    </g>
    <g id="xtick_2">
     <g id="line2d_2">
      <g>
       <use style="stroke:#000000;stroke-width:0.8;" x="91.39382" xlink:href="#m73b4aa4c58" y="252"/>
      </g>
     </g>
     <g id="text_2">
      <!-- 2 -->
      <defs>
       <path d="M 19.1875 8.296875 
L 53.609375 8.296875 
L 53.609375 0 
L 7.328125 0 
L 7.328125 8.296875 
Q 12.9375 14.109375 22.625 23.890625 
Q 32.328125 33.6875 34.8125 36.53125 
Q 39.546875 41.84375 41.421875 45.53125 
Q 43.3125 49.21875 43.3125 52.78125 
Q 43.3125 58.59375 39.234375 62.25 
Q 35.15625 65.921875 28.609375 65.921875 
Q 23.96875 65.921875 18.8125 64.3125 
Q 13.671875 62.703125 7.8125 59.421875 
L 7.8125 69.390625 
Q 13.765625 71.78125 18.9375 73 
Q 24.125 74.21875 28.421875 74.21875 
Q 39.75 74.21875 46.484375 68.546875 
Q 53.21875 62.890625 53.21875 53.421875 
Q 53.21875 48.921875 51.53125 44.890625 
Q 49.859375 40.875 45.40625 35.40625 
Q 44.1875 33.984375 37.640625 27.21875 
Q 31.109375 20.453125 19.1875 8.296875 
z
" id="DejaVuSans-50"/>
      </defs>
      <g transform="translate(88.21257 266.598437)scale(0.1 -0.1)">
       <use xlink:href="#DejaVuSans-50"/>
      </g>
     </g>
    </g>
    <g id="xtick_3">
     <g id="line2d_3">
      <g>
       <use style="stroke:#000000;stroke-width:0.8;" x="111.444125" xlink:href="#m73b4aa4c58" y="252"/>
      </g>
     </g>
     <g id="text_3">
      <!-- 3 -->
      <defs>
       <path d="M 40.578125 39.3125 
Q 47.65625 37.796875 51.625 33 
Q 55.609375 28.21875 55.609375 21.1875 
Q 55.609375 10.40625 48.1875 4.484375 
Q 40.765625 -1.421875 27.09375 -1.421875 
Q 22.515625 -1.421875 17.65625 -0.515625 
Q 12.796875 0.390625 7.625 2.203125 
L 7.625 11.71875 
Q 11.71875 9.328125 16.59375 8.109375 
Q 21.484375 6.890625 26.8125 6.890625 
Q 36.078125 6.890625 40.9375 10.546875 
Q 45.796875 14.203125 45.796875 21.1875 
Q 45.796875 27.640625 41.28125 31.265625 
Q 36.765625 34.90625 28.71875 34.90625 
L 20.21875 34.90625 
L 20.21875 43.015625 
L 29.109375 43.015625 
Q 36.375 43.015625 40.234375 45.921875 
Q 44.09375 48.828125 44.09375 54.296875 
Q 44.09375 59.90625 40.109375 62.90625 
Q 36.140625 65.921875 28.71875 65.921875 
Q 24.65625 65.921875 20.015625 65.03125 
Q 15.375 64.15625 9.8125 62.3125 
L 9.8125 71.09375 
Q 15.4375 72.65625 20.34375 73.4375 
Q 25.25 74.21875 29.59375 74.21875 
Q 40.828125 74.21875 47.359375 69.109375 
Q 53.90625 64.015625 53.90625 55.328125 
Q 53.90625 49.265625 50.4375 45.09375 
Q 46.96875 40.921875 40.578125 39.3125 
z
" id="DejaVuSans-51"/>
      </defs>
      <g transform="translate(108.262875 266.598437)scale(0.1 -0.1)">
       <use xlink:href="#DejaVuSans-51"/>
      </g>
     </g>
    </g>
    <g id="text_4">
     <!-- K % -->
     <defs>
      <path d="M 9.8125 72.90625 
L 19.671875 72.90625 
L 19.671875 42.09375 
L 52.390625 72.90625 
L 65.09375 72.90625 
L 28.90625 38.921875 
L 67.671875 0 
L 54.6875 0 
L 19.671875 35.109375 
L 19.671875 0 
L 9.8125 0 
z
" id="DejaVuSans-75"/>
      <path id="DejaVuSans-32"/>
      <path d="M 72.703125 32.078125 
Q 68.453125 32.078125 66.03125 28.46875 
Q 63.625 24.859375 63.625 18.40625 
Q 63.625 12.0625 66.03125 8.421875 
Q 68.453125 4.78125 72.703125 4.78125 
Q 76.859375 4.78125 79.265625 8.421875 
Q 81.6875 12.0625 81.6875 18.40625 
Q 81.6875 24.8125 79.265625 28.4375 
Q 76.859375 32.078125 72.703125 32.078125 
z
M 72.703125 38.28125 
Q 80.421875 38.28125 84.953125 32.90625 
Q 89.5 27.546875 89.5 18.40625 
Q 89.5 9.28125 84.9375 3.921875 
Q 80.375 -1.421875 72.703125 -1.421875 
Q 64.890625 -1.421875 60.34375 3.921875 
Q 55.8125 9.28125 55.8125 18.40625 
Q 55.8125 27.59375 60.375 32.9375 
Q 64.9375 38.28125 72.703125 38.28125 
z
M 22.3125 68.015625 
Q 18.109375 68.015625 15.6875 64.375 
Q 13.28125 60.75 13.28125 54.390625 
Q 13.28125 47.953125 15.671875 44.328125 
Q 18.0625 40.71875 22.3125 40.71875 
Q 26.5625 40.71875 28.96875 44.328125 
Q 31.390625 47.953125 31.390625 54.390625 
Q 31.390625 60.6875 28.953125 64.34375 
Q 26.515625 68.015625 22.3125 68.015625 
z
M 66.40625 74.21875 
L 74.21875 74.21875 
L 28.609375 -1.421875 
L 20.796875 -1.421875 
z
M 22.3125 74.21875 
Q 30.03125 74.21875 34.609375 68.875 
Q 39.203125 63.53125 39.203125 54.390625 
Q 39.203125 45.171875 34.640625 39.84375 
Q 30.078125 34.515625 22.3125 34.515625 
Q 14.546875 34.515625 10.03125 39.859375 
Q 5.515625 45.21875 5.515625 54.390625 
Q 5.515625 63.484375 10.046875 68.84375 
Q 14.59375 74.21875 22.3125 74.21875 
z
" id="DejaVuSans-37"/>
     </defs>
     <g transform="translate(80.772554 280.276563)scale(0.1 -0.1)">
      <use xlink:href="#DejaVuSans-75"/>
      <use x="65.576172" xlink:href="#DejaVuSans-32"/>
      <use x="97.363281" xlink:href="#DejaVuSans-37"/>
     </g>
    </g>
   </g>
   <g id="matplotlib.axis_2">
    <g id="ytick_1">
     <g id="line2d_4">
      <defs>
       <path d="M 0 0 
L -3.5 0 
" id="m43946d7a51" style="stroke:#000000;stroke-width:0.8;"/>
      </defs>
      <g>
       <use style="stroke:#000000;stroke-width:0.8;" x="54" xlink:href="#m43946d7a51" y="242.116364"/>
      </g>
     </g>
     <g id="text_5">
      <!-- 0 -->
      <defs>
       <path d="M 31.78125 66.40625 
Q 24.171875 66.40625 20.328125 58.90625 
Q 16.5 51.421875 16.5 36.375 
Q 16.5 21.390625 20.328125 13.890625 
Q 24.171875 6.390625 31.78125 6.390625 
Q 39.453125 6.390625 43.28125 13.890625 
Q 47.125 21.390625 47.125 36.375 
Q 47.125 51.421875 43.28125 58.90625 
Q 39.453125 66.40625 31.78125 66.40625 
z
M 31.78125 74.21875 
Q 44.046875 74.21875 50.515625 64.515625 
Q 56.984375 54.828125 56.984375 36.375 
Q 56.984375 17.96875 50.515625 8.265625 
Q 44.046875 -1.421875 31.78125 -1.421875 
Q 19.53125 -1.421875 13.0625 8.265625 
Q 6.59375 17.96875 6.59375 36.375 
Q 6.59375 54.828125 13.0625 64.515625 
Q 19.53125 74.21875 31.78125 74.21875 
z
" id="DejaVuSans-48"/>
      </defs>
      <g transform="translate(40.6375 245.915582)scale(0.1 -0.1)">
       <use xlink:href="#DejaVuSans-48"/>
      </g>
     </g>
    </g>
    <g id="ytick_2">
     <g id="line2d_5">
      <g>
       <use style="stroke:#000000;stroke-width:0.8;" x="54" xlink:href="#m43946d7a51" y="195.051429"/>
      </g>
     </g>
     <g id="text_6">
      <!-- 10 -->
      <g transform="translate(34.275 198.850647)scale(0.1 -0.1)">
       <use xlink:href="#DejaVuSans-49"/>
       <use x="63.623047" xlink:href="#DejaVuSans-48"/>
      </g>
     </g>
    </g>
    <g id="ytick_3">
     <g id="line2d_6">
      <g>
       <use style="stroke:#000000;stroke-width:0.8;" x="54" xlink:href="#m43946d7a51" y="147.986494"/>
      </g>
     </g>
     <g id="text_7">
      <!-- 20 -->
      <g transform="translate(34.275 151.785712)scale(0.1 -0.1)">
       <use xlink:href="#DejaVuSans-50"/>
       <use x="63.623047" xlink:href="#DejaVuSans-48"/>
      </g>
     </g>
    </g>
    <g id="ytick_4">
     <g id="line2d_7">
      <g>
       <use style="stroke:#000000;stroke-width:0.8;" x="54" xlink:href="#m43946d7a51" y="100.921558"/>
      </g>
     </g>
     <g id="text_8">
      <!-- 30 -->
      <g transform="translate(34.275 104.720777)scale(0.1 -0.1)">
       <use xlink:href="#DejaVuSans-51"/>
       <use x="63.623047" xlink:href="#DejaVuSans-48"/>
      </g>
     </g>
    </g>
    <g id="ytick_5">
     <g id="line2d_8">
      <g>
       <use style="stroke:#000000;stroke-width:0.8;" x="54" xlink:href="#m43946d7a51" y="53.856623"/>
      </g>
     </g>
     <g id="text_9">
      <!-- 40 -->
      <defs>
       <path d="M 37.796875 64.3125 
L 12.890625 25.390625 
L 37.796875 25.390625 
z
M 35.203125 72.90625 
L 47.609375 72.90625 
L 47.609375 25.390625 
L 58.015625 25.390625 
L 58.015625 17.1875 
L 47.609375 17.1875 
L 47.609375 0 
L 37.796875 0 
L 37.796875 17.1875 
L 4.890625 17.1875 
L 4.890625 26.703125 
z
" id="DejaVuSans-52"/>
      </defs>
      <g transform="translate(34.275 57.655842)scale(0.1 -0.1)">
       <use xlink:href="#DejaVuSans-52"/>
       <use x="63.623047" xlink:href="#DejaVuSans-48"/>
      </g>
     </g>
    </g>
   </g>
   <g id="line2d_9">
    <path clip-path="url(#p13c860cac2)" d="M 93.39885 242.116364 
L 73.348545 240.93974 
L 115.454186 239.763117 
L 111.444125 238.586494 
L 95.403881 237.40987 
L 107.434064 236.233247 
L 113.449156 235.056623 
L 87.383759 233.88 
L 101.418972 232.703377 
L 107.434064 231.526753 
L 99.413942 230.35013 
L 75.353575 227.996883 
L 89.388789 226.82026 
L 101.418972 225.643636 
L 119.464247 224.467013 
L 105.429033 223.29039 
L 123.474308 222.113766 
L 119.464247 220.937143 
L 111.444125 219.760519 
L 103.424003 217.407273 
L 105.429033 216.230649 
L 99.413942 215.054026 
L 117.459217 213.877403 
L 81.368667 212.700779 
L 113.449156 211.524156 
L 83.373697 210.347532 
L 79.363636 209.170909 
L 91.39382 207.994286 
L 67.333453 206.817662 
L 83.373697 206.817662 
L 95.403881 205.641039 
L 93.39885 204.464416 
L 93.39885 203.287792 
L 107.434064 202.111169 
L 105.429033 200.934545 
L 99.413942 199.757922 
L 101.418972 198.581299 
L 119.464247 197.404675 
L 109.439095 196.228052 
L 113.449156 195.051429 
L 105.429033 193.874805 
L 111.444125 192.698182 
L 107.434064 191.521558 
L 109.439095 190.344935 
L 99.413942 187.991688 
L 99.413942 186.815065 
L 101.418972 185.638442 
L 87.383759 184.461818 
L 81.368667 183.285195 
L 85.378728 182.108571 
L 87.383759 180.931948 
L 83.373697 179.755325 
L 95.403881 178.578701 
L 103.424003 177.402078 
L 105.429033 176.225455 
L 101.418972 175.048831 
L 107.434064 173.872208 
L 97.408911 172.695584 
L 99.413942 171.518961 
L 97.408911 170.342338 
L 81.368667 169.165714 
L 95.403881 167.989091 
L 75.353575 166.812468 
L 73.348545 165.635844 
L 89.388789 164.459221 
L 115.454186 163.282597 
L 115.454186 162.105974 
L 119.464247 160.929351 
L 113.449156 159.752727 
L 99.413942 158.576104 
L 121.469278 157.399481 
L 117.459217 156.222857 
L 115.454186 155.046234 
L 115.454186 153.86961 
L 103.424003 151.516364 
L 117.459217 150.33974 
L 109.439095 149.163117 
L 103.424003 147.751169 
L 115.454186 146.574545 
L 105.429033 145.397922 
L 115.454186 144.221299 
L 117.459217 143.044675 
L 99.413942 141.868052 
L 95.403881 140.691429 
L 103.424003 139.514805 
L 107.434064 138.338182 
L 123.474308 137.161558 
L 109.439095 135.984935 
L 111.444125 134.808312 
L 115.454186 133.631688 
L 107.434064 133.631688 
L 107.434064 132.455065 
L 115.454186 131.278442 
L 83.373697 130.101818 
L 113.449156 128.925195 
L 111.444125 127.748571 
L 93.39885 126.571948 
L 85.378728 124.218701 
L 117.459217 123.042078 
L 115.454186 121.865455 
L 87.383759 120.688831 
L 115.454186 119.512208 
L 117.459217 118.335584 
L 109.439095 117.158961 
L 119.464247 115.982338 
L 87.383759 114.805714 
L 109.439095 113.629091 
L 69.338484 112.452468 
L 67.333453 111.275844 
L 81.368667 110.334545 
L 121.469278 109.157922 
L 91.39382 107.981299 
L 91.39382 105.628052 
L 79.363636 104.451429 
L 103.424003 102.098182 
L 117.459217 100.921558 
L 103.424003 99.744935 
L 113.449156 98.568312 
L 109.439095 97.391688 
L 113.449156 95.97974 
L 111.444125 94.803117 
L 111.444125 93.626494 
L 105.429033 92.44987 
L 81.368667 91.273247 
L 95.403881 90.096623 
L 79.363636 88.92 
L 97.408911 87.743377 
L 91.39382 86.566753 
L 73.348545 85.39013 
L 85.378728 84.213506 
L 103.424003 83.272208 
L 95.403881 82.095584 
L 57.3083 80.918961 
L 65.328423 79.742338 
L 57.3083 78.565714 
L 77.358606 77.389091 
L 89.388789 75.035844 
L 83.373697 73.859221 
L 115.454186 72.682597 
L 119.464247 71.505974 
L 95.403881 70.329351 
L 107.434064 67.976104 
L 97.408911 66.799481 
L 93.39885 65.622857 
L 99.413942 64.446234 
L 107.434064 63.26961 
L 97.408911 62.092987 
L 109.439095 60.916364 
L 87.383759 59.73974 
L 75.353575 58.563117 
L 85.378728 57.386494 
L 99.413942 56.20987 
L 83.373697 55.033247 
L 117.459217 53.856623 
L 117.459217 52.68 
L 85.378728 51.503377 
L 79.363636 50.326753 
L 85.378728 49.15013 
L 85.378728 47.973506 
L 81.368667 46.796883 
L 79.363636 45.62026 
L 115.454186 44.443636 
L 115.454186 44.443636 
" style="fill:none;stroke:#000000;stroke-linecap:square;stroke-width:1.5;"/>
   </g>
   <g id="patch_3">
    <path d="M 54 252 
L 54 34.56 
" style="fill:none;stroke:#000000;stroke-linecap:square;stroke-linejoin:miter;stroke-width:0.8;"/>
   </g>
   <g id="patch_4">
    <path d="M 126.782609 252 
L 126.782609 34.56 
" style="fill:none;stroke:#000000;stroke-linecap:square;stroke-linejoin:miter;stroke-width:0.8;"/>
   </g>
   <g id="patch_5">
    <path d="M 54 252 
L 126.782609 252 
" style="fill:none;stroke:#000000;stroke-linecap:square;stroke-linejoin:miter;stroke-width:0.8;"/>
   </g>
   <g id="patch_6">
    <path d="M 54 34.56 
L 126.782609 34.56 
" style="fill:none;stroke:#000000;stroke-linecap:square;stroke-linejoin:miter;stroke-width:0.8;"/>
   </g>
  </g>
  <g id="axes_2">
   <g id="patch_7">
    <path d="M 141.33913 252 
L 214.121739 252 
L 214.121739 34.56 
L 141.33913 34.56 
z
" style="fill:none;"/>
   </g>
   <g id="matplotlib.axis_3">
    <g id="xtick_4">
     <g id="line2d_10">
      <g>
       <use style="stroke:#000000;stroke-width:0.8;" x="144.647431" xlink:href="#m73b4aa4c58" y="252"/>
      </g>
     </g>
     <g id="text_10">
      <!-- 0 -->
      <g transform="translate(141.466181 266.598437)scale(0.1 -0.1)">
       <use xlink:href="#DejaVuSans-48"/>
      </g>
     </g>
    </g>
    <g id="xtick_5">
     <g id="line2d_11">
      <g>
       <use style="stroke:#000000;stroke-width:0.8;" x="193.298907" xlink:href="#m73b4aa4c58" y="252"/>
      </g>
     </g>
     <g id="text_11">
      <!-- 5 -->
      <defs>
       <path d="M 10.796875 72.90625 
L 49.515625 72.90625 
L 49.515625 64.59375 
L 19.828125 64.59375 
L 19.828125 46.734375 
Q 21.96875 47.46875 24.109375 47.828125 
Q 26.265625 48.1875 28.421875 48.1875 
Q 40.625 48.1875 47.75 41.5 
Q 54.890625 34.8125 54.890625 23.390625 
Q 54.890625 11.625 47.5625 5.09375 
Q 40.234375 -1.421875 26.90625 -1.421875 
Q 22.3125 -1.421875 17.546875 -0.640625 
Q 12.796875 0.140625 7.71875 1.703125 
L 7.71875 11.625 
Q 12.109375 9.234375 16.796875 8.0625 
Q 21.484375 6.890625 26.703125 6.890625 
Q 35.15625 6.890625 40.078125 11.328125 
Q 45.015625 15.765625 45.015625 23.390625 
Q 45.015625 31 40.078125 35.4375 
Q 35.15625 39.890625 26.703125 39.890625 
Q 22.75 39.890625 18.8125 39.015625 
Q 14.890625 38.140625 10.796875 36.28125 
z
" id="DejaVuSans-53"/>
      </defs>
      <g transform="translate(190.117657 266.598437)scale(0.1 -0.1)">
       <use xlink:href="#DejaVuSans-53"/>
      </g>
     </g>
    </g>
    <g id="text_12">
     <!-- U ppm -->
     <defs>
      <path d="M 8.6875 72.90625 
L 18.609375 72.90625 
L 18.609375 28.609375 
Q 18.609375 16.890625 22.84375 11.734375 
Q 27.09375 6.59375 36.625 6.59375 
Q 46.09375 6.59375 50.34375 11.734375 
Q 54.59375 16.890625 54.59375 28.609375 
L 54.59375 72.90625 
L 64.5 72.90625 
L 64.5 27.390625 
Q 64.5 13.140625 57.4375 5.859375 
Q 50.390625 -1.421875 36.625 -1.421875 
Q 22.796875 -1.421875 15.734375 5.859375 
Q 8.6875 13.140625 8.6875 27.390625 
z
" id="DejaVuSans-85"/>
      <path d="M 18.109375 8.203125 
L 18.109375 -20.796875 
L 9.078125 -20.796875 
L 9.078125 54.6875 
L 18.109375 54.6875 
L 18.109375 46.390625 
Q 20.953125 51.265625 25.265625 53.625 
Q 29.59375 56 35.59375 56 
Q 45.5625 56 51.78125 48.09375 
Q 58.015625 40.1875 58.015625 27.296875 
Q 58.015625 14.40625 51.78125 6.484375 
Q 45.5625 -1.421875 35.59375 -1.421875 
Q 29.59375 -1.421875 25.265625 0.953125 
Q 20.953125 3.328125 18.109375 8.203125 
z
M 48.6875 27.296875 
Q 48.6875 37.203125 44.609375 42.84375 
Q 40.53125 48.484375 33.40625 48.484375 
Q 26.265625 48.484375 22.1875 42.84375 
Q 18.109375 37.203125 18.109375 27.296875 
Q 18.109375 17.390625 22.1875 11.75 
Q 26.265625 6.109375 33.40625 6.109375 
Q 40.53125 6.109375 44.609375 11.75 
Q 48.6875 17.390625 48.6875 27.296875 
z
" id="DejaVuSans-112"/>
      <path d="M 52 44.1875 
Q 55.375 50.25 60.0625 53.125 
Q 64.75 56 71.09375 56 
Q 79.640625 56 84.28125 50.015625 
Q 88.921875 44.046875 88.921875 33.015625 
L 88.921875 0 
L 79.890625 0 
L 79.890625 32.71875 
Q 79.890625 40.578125 77.09375 44.375 
Q 74.3125 48.1875 68.609375 48.1875 
Q 61.625 48.1875 57.5625 43.546875 
Q 53.515625 38.921875 53.515625 30.90625 
L 53.515625 0 
L 44.484375 0 
L 44.484375 32.71875 
Q 44.484375 40.625 41.703125 44.40625 
Q 38.921875 48.1875 33.109375 48.1875 
Q 26.21875 48.1875 22.15625 43.53125 
Q 18.109375 38.875 18.109375 30.90625 
L 18.109375 0 
L 9.078125 0 
L 9.078125 54.6875 
L 18.109375 54.6875 
L 18.109375 46.1875 
Q 21.1875 51.21875 25.484375 53.609375 
Q 29.78125 56 35.6875 56 
Q 41.65625 56 45.828125 52.96875 
Q 50 49.953125 52 44.1875 
z
" id="DejaVuSans-109"/>
     </defs>
     <g transform="translate(161.263247 280.276563)scale(0.1 -0.1)">
      <use xlink:href="#DejaVuSans-85"/>
      <use x="73.193359" xlink:href="#DejaVuSans-32"/>
      <use x="104.980469" xlink:href="#DejaVuSans-112"/>
      <use x="168.457031" xlink:href="#DejaVuSans-112"/>
      <use x="231.933594" xlink:href="#DejaVuSans-109"/>
     </g>
    </g>
   </g>
   <g id="matplotlib.axis_4">
    <g id="ytick_6">
     <g id="line2d_12">
      <g>
       <use style="stroke:#000000;stroke-width:0.8;" x="141.33913" xlink:href="#m43946d7a51" y="242.116364"/>
      </g>
     </g>
    </g>
    <g id="ytick_7">
     <g id="line2d_13">
      <g>
       <use style="stroke:#000000;stroke-width:0.8;" x="141.33913" xlink:href="#m43946d7a51" y="195.051429"/>
      </g>
     </g>
    </g>
    <g id="ytick_8">
     <g id="line2d_14">
      <g>
       <use style="stroke:#000000;stroke-width:0.8;" x="141.33913" xlink:href="#m43946d7a51" y="147.986494"/>
      </g>
     </g>
    </g>
    <g id="ytick_9">
     <g id="line2d_15">
      <g>
       <use style="stroke:#000000;stroke-width:0.8;" x="141.33913" xlink:href="#m43946d7a51" y="100.921558"/>
      </g>
     </g>
    </g>
    <g id="ytick_10">
     <g id="line2d_16">
      <g>
       <use style="stroke:#000000;stroke-width:0.8;" x="141.33913" xlink:href="#m43946d7a51" y="53.856623"/>
      </g>
     </g>
    </g>
   </g>
   <g id="line2d_17">
    <path clip-path="url(#p4959d0fc97)" d="M 186.487701 242.116364 
L 150.485608 240.93974 
L 168.00014 239.763117 
L 177.730435 238.586494 
L 179.676494 237.40987 
L 166.05408 236.233247 
L 189.406789 235.056623 
L 156.323785 233.88 
L 170.919228 232.703377 
L 170.919228 231.526753 
L 178.703464 230.35013 
L 148.539549 229.173506 
L 164.108021 227.996883 
L 174.811346 226.82026 
L 194.271937 225.643636 
L 151.458638 224.467013 
L 175.784376 223.29039 
L 176.757405 222.113766 
L 153.404697 220.937143 
L 171.892258 219.760519 
L 168.973169 218.583896 
L 168.00014 217.407273 
L 144.647431 216.230649 
L 168.973169 215.054026 
L 168.00014 213.877403 
L 194.271937 211.524156 
L 168.973169 210.347532 
L 168.973169 209.170909 
L 148.539549 207.994286 
L 146.59349 206.817662 
L 161.188933 206.817662 
L 166.05408 205.641039 
L 186.487701 204.464416 
L 168.973169 203.287792 
L 167.02711 202.111169 
L 179.676494 200.934545 
L 194.271937 199.757922 
L 198.164055 198.581299 
L 157.296815 197.404675 
L 168.973169 196.228052 
L 154.377726 195.051429 
L 166.05408 193.874805 
L 171.892258 192.698182 
L 169.946199 191.521558 
L 186.487701 190.344935 
L 162.161962 187.991688 
L 198.164055 186.815065 
L 162.161962 185.638442 
L 168.973169 184.461818 
L 168.00014 183.285195 
L 168.00014 180.931948 
L 185.514671 179.755325 
L 175.784376 178.578701 
L 159.242874 177.402078 
L 176.757405 176.225455 
L 165.081051 175.048831 
L 151.458638 173.872208 
L 171.892258 172.695584 
L 153.404697 171.518961 
L 152.431667 170.342338 
L 155.350756 169.165714 
L 183.568612 167.989091 
L 152.431667 166.812468 
L 153.404697 165.635844 
L 168.973169 164.459221 
L 149.512578 163.282597 
L 187.46073 162.105974 
L 159.242874 160.929351 
L 170.919228 159.752727 
L 190.379819 158.576104 
L 185.514671 157.399481 
L 186.487701 156.222857 
L 176.757405 155.046234 
L 185.514671 153.86961 
L 156.323785 152.692987 
L 159.242874 151.516364 
L 144.647431 150.33974 
L 180.649523 149.163117 
L 177.730435 147.751169 
L 144.647431 146.574545 
L 164.108021 145.397922 
L 168.973169 144.221299 
L 180.649523 143.044675 
L 167.02711 141.868052 
L 172.865287 140.691429 
L 178.703464 138.338182 
L 154.377726 135.984935 
L 182.595582 134.808312 
L 168.00014 133.631688 
L 157.296815 133.631688 
L 172.865287 132.455065 
L 177.730435 131.278442 
L 159.242874 130.101818 
L 157.296815 128.925195 
L 160.215903 127.748571 
L 193.298907 126.571948 
L 163.134992 125.395325 
L 167.02711 124.218701 
L 169.946199 123.042078 
L 190.379819 121.865455 
L 161.188933 120.688831 
L 171.892258 119.512208 
L 154.377726 118.335584 
L 170.919228 117.158961 
L 179.676494 115.982338 
L 186.487701 114.805714 
L 148.539549 112.452468 
L 169.946199 111.275844 
L 161.188933 110.334545 
L 167.02711 109.157922 
L 171.892258 107.981299 
L 145.62046 106.804675 
L 171.892258 105.628052 
L 159.242874 104.451429 
L 151.458638 102.098182 
L 151.458638 100.921558 
L 169.946199 99.744935 
L 150.485608 98.568312 
L 179.676494 97.391688 
L 161.188933 95.97974 
L 167.02711 94.803117 
L 176.757405 93.626494 
L 156.323785 92.44987 
L 175.784376 91.273247 
L 164.108021 90.096623 
L 166.05408 88.92 
L 186.487701 87.743377 
L 144.647431 86.566753 
L 152.431667 85.39013 
L 163.134992 84.213506 
L 152.431667 83.272208 
L 163.134992 82.095584 
L 159.242874 80.918961 
L 171.892258 79.742338 
L 180.649523 78.565714 
L 144.647431 77.389091 
L 167.02711 75.035844 
L 172.865287 73.859221 
L 165.081051 72.682597 
L 192.325878 71.505974 
L 163.134992 70.329351 
L 171.892258 69.152727 
L 177.730435 67.976104 
L 178.703464 66.799481 
L 190.379819 65.622857 
L 184.541641 64.446234 
L 185.514671 63.26961 
L 210.813439 62.092987 
L 166.05408 60.916364 
L 172.865287 59.73974 
L 154.377726 58.563117 
L 178.703464 57.386494 
L 156.323785 56.20987 
L 184.541641 55.033247 
L 189.406789 53.856623 
L 164.108021 52.68 
L 163.134992 51.503377 
L 176.757405 50.326753 
L 155.350756 49.15013 
L 163.134992 47.973506 
L 146.59349 46.796883 
L 171.892258 45.62026 
L 179.676494 44.443636 
L 179.676494 44.443636 
" style="fill:none;stroke:#000000;stroke-linecap:square;stroke-width:1.5;"/>
   </g>
   <g id="patch_8">
    <path d="M 141.33913 252 
L 141.33913 34.56 
" style="fill:none;stroke:#000000;stroke-linecap:square;stroke-linejoin:miter;stroke-width:0.8;"/>
   </g>
   <g id="patch_9">
    <path d="M 214.121739 252 
L 214.121739 34.56 
" style="fill:none;stroke:#000000;stroke-linecap:square;stroke-linejoin:miter;stroke-width:0.8;"/>
   </g>
   <g id="patch_10">
    <path d="M 141.33913 252 
L 214.121739 252 
" style="fill:none;stroke:#000000;stroke-linecap:square;stroke-linejoin:miter;stroke-width:0.8;"/>
   </g>
   <g id="patch_11">
    <path d="M 141.33913 34.56 
L 214.121739 34.56 
" style="fill:none;stroke:#000000;stroke-linecap:square;stroke-linejoin:miter;stroke-width:0.8;"/>
   </g>
  </g>
  <g id="axes_3">
   <g id="patch_12">
    <path d="M 228.678261 252 
L 301.46087 252 
L 301.46087 34.56 
L 228.678261 34.56 
z
" style="fill:none;"/>
   </g>
   <g id="matplotlib.axis_5">
    <g id="xtick_6">
     <g id="line2d_18">
      <g>
       <use style="stroke:#000000;stroke-width:0.8;" x="261.623419" xlink:href="#m73b4aa4c58" y="252"/>
      </g>
     </g>
     <g id="text_13">
      <!-- 10 -->
      <g transform="translate(255.260919 266.598437)scale(0.1 -0.1)">
       <use xlink:href="#DejaVuSans-49"/>
       <use x="63.623047" xlink:href="#DejaVuSans-48"/>
      </g>
     </g>
    </g>
    <g id="xtick_7">
     <g id="line2d_19">
      <g>
       <use style="stroke:#000000;stroke-width:0.8;" x="296.084881" xlink:href="#m73b4aa4c58" y="252"/>
      </g>
     </g>
     <g id="text_14">
      <!-- 20 -->
      <g transform="translate(289.722381 266.598437)scale(0.1 -0.1)">
       <use xlink:href="#DejaVuSans-50"/>
       <use x="63.623047" xlink:href="#DejaVuSans-48"/>
      </g>
     </g>
    </g>
    <g id="text_15">
     <!-- Th ppm -->
     <defs>
      <path d="M -0.296875 72.90625 
L 61.375 72.90625 
L 61.375 64.59375 
L 35.5 64.59375 
L 35.5 0 
L 25.59375 0 
L 25.59375 64.59375 
L -0.296875 64.59375 
z
" id="DejaVuSans-84"/>
      <path d="M 54.890625 33.015625 
L 54.890625 0 
L 45.90625 0 
L 45.90625 32.71875 
Q 45.90625 40.484375 42.875 44.328125 
Q 39.84375 48.1875 33.796875 48.1875 
Q 26.515625 48.1875 22.3125 43.546875 
Q 18.109375 38.921875 18.109375 30.90625 
L 18.109375 0 
L 9.078125 0 
L 9.078125 75.984375 
L 18.109375 75.984375 
L 18.109375 46.1875 
Q 21.34375 51.125 25.703125 53.5625 
Q 30.078125 56 35.796875 56 
Q 45.21875 56 50.046875 50.171875 
Q 54.890625 44.34375 54.890625 33.015625 
z
" id="DejaVuSans-104"/>
     </defs>
     <g transform="translate(246.039096 280.276563)scale(0.1 -0.1)">
      <use xlink:href="#DejaVuSans-84"/>
      <use x="61.083984" xlink:href="#DejaVuSans-104"/>
      <use x="124.462891" xlink:href="#DejaVuSans-32"/>
      <use x="156.25" xlink:href="#DejaVuSans-112"/>
      <use x="219.726562" xlink:href="#DejaVuSans-112"/>
      <use x="283.203125" xlink:href="#DejaVuSans-109"/>
     </g>
    </g>
   </g>
   <g id="matplotlib.axis_6">
    <g id="ytick_11">
     <g id="line2d_20">
      <g>
       <use style="stroke:#000000;stroke-width:0.8;" x="228.678261" xlink:href="#m43946d7a51" y="242.116364"/>
      </g>
     </g>
    </g>
    <g id="ytick_12">
     <g id="line2d_21">
      <g>
       <use style="stroke:#000000;stroke-width:0.8;" x="228.678261" xlink:href="#m43946d7a51" y="195.051429"/>
      </g>
     </g>
    </g>
    <g id="ytick_13">
     <g id="line2d_22">
      <g>
       <use style="stroke:#000000;stroke-width:0.8;" x="228.678261" xlink:href="#m43946d7a51" y="147.986494"/>
      </g>
     </g>
    </g>
    <g id="ytick_14">
     <g id="line2d_23">
      <g>
       <use style="stroke:#000000;stroke-width:0.8;" x="228.678261" xlink:href="#m43946d7a51" y="100.921558"/>
      </g>
     </g>
    </g>
    <g id="ytick_15">
     <g id="line2d_24">
      <g>
       <use style="stroke:#000000;stroke-width:0.8;" x="228.678261" xlink:href="#m43946d7a51" y="53.856623"/>
      </g>
     </g>
    </g>
   </g>
   <g id="line2d_25">
    <path clip-path="url(#p34ed62ec58)" d="M 245.426532 242.116364 
L 266.448024 240.93974 
L 279.543379 239.763117 
L 257.832658 238.586494 
L 262.312648 237.40987 
L 258.521887 236.233247 
L 250.940366 235.056623 
L 259.555731 233.88 
L 260.589575 232.703377 
L 268.860326 231.526753 
L 249.561907 230.35013 
L 248.872678 227.996883 
L 260.589575 226.82026 
L 246.80499 225.643636 
L 290.571047 224.467013 
L 251.974209 223.29039 
L 268.171097 222.113766 
L 273.684931 220.937143 
L 270.928014 219.760519 
L 269.204941 218.583896 
L 275.408004 217.407273 
L 272.651087 216.230649 
L 271.272628 215.054026 
L 262.657263 213.877403 
L 239.568083 212.700779 
L 263.346492 211.524156 
L 258.866502 210.347532 
L 259.211117 209.170909 
L 278.85415 207.994286 
L 245.771146 206.817662 
L 238.189625 206.817662 
L 252.663439 205.641039 
L 253.697283 204.464416 
L 256.798814 203.287792 
L 262.657263 202.111169 
L 260.24496 200.934545 
L 257.488043 199.757922 
L 255.075741 198.581299 
L 265.069565 197.404675 
L 268.860326 196.228052 
L 256.798814 195.051429 
L 258.521887 193.874805 
L 254.041897 192.698182 
L 264.724951 191.521558 
L 257.488043 190.344935 
L 263.346492 187.991688 
L 255.075741 186.815065 
L 254.731126 185.638442 
L 248.528063 184.461818 
L 246.460375 183.285195 
L 254.731126 182.108571 
L 254.731126 180.931948 
L 245.426532 179.755325 
L 256.4542 178.578701 
L 258.866502 177.402078 
L 264.380336 176.225455 
L 265.069565 175.048831 
L 278.164921 173.872208 
L 265.069565 172.695584 
L 278.509536 171.518961 
L 274.37416 170.342338 
L 257.488043 169.165714 
L 260.24496 167.989091 
L 249.217292 166.812468 
L 251.629595 165.635844 
L 246.115761 164.459221 
L 263.346492 163.282597 
L 259.555731 162.105974 
L 288.158745 160.929351 
L 266.792638 159.752727 
L 266.103409 158.576104 
L 259.555731 157.399481 
L 255.420356 156.222857 
L 272.651087 155.046234 
L 253.352668 153.86961 
L 263.346492 152.692987 
L 256.798814 151.516364 
L 263.691107 150.33974 
L 245.081917 149.163117 
L 254.041897 147.751169 
L 298.152569 146.574545 
L 292.638735 145.397922 
L 251.974209 144.221299 
L 253.352668 143.044675 
L 256.4542 141.868052 
L 260.589575 140.691429 
L 245.426532 139.514805 
L 255.76497 138.338182 
L 254.041897 137.161558 
L 271.617243 135.984935 
L 253.352668 134.808312 
L 279.543379 133.631688 
L 267.481868 133.631688 
L 266.792638 132.455065 
L 251.28498 131.278442 
L 253.008053 130.101818 
L 273.684931 128.925195 
L 269.204941 127.748571 
L 245.081917 126.571948 
L 244.392688 125.395325 
L 250.595751 124.218701 
L 268.860326 123.042078 
L 255.075741 121.865455 
L 259.211117 120.688831 
L 260.24496 119.512208 
L 288.50336 118.335584 
L 260.589575 117.158961 
L 257.488043 115.982338 
L 247.494219 114.805714 
L 264.724951 113.629091 
L 249.561907 112.452468 
L 248.872678 111.275844 
L 253.008053 110.334545 
L 268.860326 109.157922 
L 265.069565 107.981299 
L 259.900346 106.804675 
L 240.601927 104.451429 
L 271.961858 102.098182 
L 269.549555 100.921558 
L 264.724951 99.744935 
L 265.41418 98.568312 
L 259.900346 97.391688 
L 256.4542 95.97974 
L 245.771146 94.803117 
L 265.41418 92.44987 
L 250.251136 91.273247 
L 260.93419 90.096623 
L 246.460375 88.92 
L 261.968034 87.743377 
L 262.312648 86.566753 
L 257.832658 85.39013 
L 250.940366 84.213506 
L 276.097233 83.272208 
L 256.798814 82.095584 
L 245.426532 80.918961 
L 231.986561 79.742338 
L 240.257312 78.565714 
L 266.792638 77.389091 
L 241.980385 75.035844 
L 239.912698 73.859221 
L 262.657263 72.682597 
L 246.460375 71.505974 
L 248.528063 70.329351 
L 247.838834 69.152727 
L 258.177273 67.976104 
L 256.109585 66.799481 
L 259.900346 65.622857 
L 262.312648 64.446234 
L 261.968034 63.26961 
L 252.663439 62.092987 
L 267.137253 60.916364 
L 260.93419 59.73974 
L 272.651087 58.563117 
L 243.703458 57.386494 
L 274.029545 56.20987 
L 239.223468 55.033247 
L 267.826482 53.856623 
L 264.724951 52.68 
L 253.008053 51.503377 
L 246.115761 50.326753 
L 264.035721 49.15013 
L 250.940366 47.973506 
L 235.777322 45.62026 
L 255.76497 44.443636 
L 255.76497 44.443636 
" style="fill:none;stroke:#000000;stroke-linecap:square;stroke-width:1.5;"/>
   </g>
   <g id="patch_13">
    <path d="M 228.678261 252 
L 228.678261 34.56 
" style="fill:none;stroke:#000000;stroke-linecap:square;stroke-linejoin:miter;stroke-width:0.8;"/>
   </g>
   <g id="patch_14">
    <path d="M 301.46087 252 
L 301.46087 34.56 
" style="fill:none;stroke:#000000;stroke-linecap:square;stroke-linejoin:miter;stroke-width:0.8;"/>
   </g>
   <g id="patch_15">
    <path d="M 228.678261 252 
L 301.46087 252 
" style="fill:none;stroke:#000000;stroke-linecap:square;stroke-linejoin:miter;stroke-width:0.8;"/>
   </g>
   <g id="patch_16">
    <path d="M 228.678261 34.56 
L 301.46087 34.56 
" style="fill:none;stroke:#000000;stroke-linecap:square;stroke-linejoin:miter;stroke-width:0.8;"/>
   </g>
  </g>
  <g id="axes_4">
   <g id="patch_17">
    <path d="M 316.017391 252 
L 388.8 252 
L 388.8 34.56 
L 316.017391 34.56 
z
" style="fill:none;"/>
   </g>
   <g id="matplotlib.axis_7">
    <g id="xtick_8">
     <g id="line2d_26">
      <g>
       <use style="stroke:#000000;stroke-width:0.8;" x="316.017391" xlink:href="#m73b4aa4c58" y="252"/>
      </g>
     </g>
     <g id="text_16">
      <!-- 0 -->
      <g transform="translate(312.836141 266.598437)scale(0.1 -0.1)">
       <use xlink:href="#DejaVuSans-48"/>
      </g>
     </g>
    </g>
    <g id="xtick_9">
     <g id="line2d_27">
      <g>
       <use style="stroke:#000000;stroke-width:0.8;" x="352.408696" xlink:href="#m73b4aa4c58" y="252"/>
      </g>
     </g>
     <g id="text_17">
      <!-- 100 -->
      <g transform="translate(342.864946 266.598437)scale(0.1 -0.1)">
       <use xlink:href="#DejaVuSans-49"/>
       <use x="63.623047" xlink:href="#DejaVuSans-48"/>
       <use x="127.246094" xlink:href="#DejaVuSans-48"/>
      </g>
     </g>
    </g>
    <g id="xtick_10">
     <g id="line2d_28">
      <g>
       <use style="stroke:#000000;stroke-width:0.8;" x="388.8" xlink:href="#m73b4aa4c58" y="252"/>
      </g>
     </g>
     <g id="text_18">
      <!-- 200 -->
      <g transform="translate(379.25625 266.598437)scale(0.1 -0.1)">
       <use xlink:href="#DejaVuSans-50"/>
       <use x="63.623047" xlink:href="#DejaVuSans-48"/>
       <use x="127.246094" xlink:href="#DejaVuSans-48"/>
      </g>
     </g>
    </g>
    <g id="text_19">
     <!-- GR API -->
     <defs>
      <path d="M 59.515625 10.40625 
L 59.515625 29.984375 
L 43.40625 29.984375 
L 43.40625 38.09375 
L 69.28125 38.09375 
L 69.28125 6.78125 
Q 63.578125 2.734375 56.6875 0.65625 
Q 49.8125 -1.421875 42 -1.421875 
Q 24.90625 -1.421875 15.25 8.5625 
Q 5.609375 18.5625 5.609375 36.375 
Q 5.609375 54.25 15.25 64.234375 
Q 24.90625 74.21875 42 74.21875 
Q 49.125 74.21875 55.546875 72.453125 
Q 61.96875 70.703125 67.390625 67.28125 
L 67.390625 56.78125 
Q 61.921875 61.421875 55.765625 63.765625 
Q 49.609375 66.109375 42.828125 66.109375 
Q 29.4375 66.109375 22.71875 58.640625 
Q 16.015625 51.171875 16.015625 36.375 
Q 16.015625 21.625 22.71875 14.15625 
Q 29.4375 6.6875 42.828125 6.6875 
Q 48.046875 6.6875 52.140625 7.59375 
Q 56.25 8.5 59.515625 10.40625 
z
" id="DejaVuSans-71"/>
      <path d="M 44.390625 34.1875 
Q 47.5625 33.109375 50.5625 29.59375 
Q 53.5625 26.078125 56.59375 19.921875 
L 66.609375 0 
L 56 0 
L 46.6875 18.703125 
Q 43.0625 26.03125 39.671875 28.421875 
Q 36.28125 30.8125 30.421875 30.8125 
L 19.671875 30.8125 
L 19.671875 0 
L 9.8125 0 
L 9.8125 72.90625 
L 32.078125 72.90625 
Q 44.578125 72.90625 50.734375 67.671875 
Q 56.890625 62.453125 56.890625 51.90625 
Q 56.890625 45.015625 53.6875 40.46875 
Q 50.484375 35.9375 44.390625 34.1875 
z
M 19.671875 64.796875 
L 19.671875 38.921875 
L 32.078125 38.921875 
Q 39.203125 38.921875 42.84375 42.21875 
Q 46.484375 45.515625 46.484375 51.90625 
Q 46.484375 58.296875 42.84375 61.546875 
Q 39.203125 64.796875 32.078125 64.796875 
z
" id="DejaVuSans-82"/>
      <path d="M 34.1875 63.1875 
L 20.796875 26.90625 
L 47.609375 26.90625 
z
M 28.609375 72.90625 
L 39.796875 72.90625 
L 67.578125 0 
L 57.328125 0 
L 50.6875 18.703125 
L 17.828125 18.703125 
L 11.1875 0 
L 0.78125 0 
z
" id="DejaVuSans-65"/>
      <path d="M 19.671875 64.796875 
L 19.671875 37.40625 
L 32.078125 37.40625 
Q 38.96875 37.40625 42.71875 40.96875 
Q 46.484375 44.53125 46.484375 51.125 
Q 46.484375 57.671875 42.71875 61.234375 
Q 38.96875 64.796875 32.078125 64.796875 
z
M 9.8125 72.90625 
L 32.078125 72.90625 
Q 44.34375 72.90625 50.609375 67.359375 
Q 56.890625 61.8125 56.890625 51.125 
Q 56.890625 40.328125 50.609375 34.8125 
Q 44.34375 29.296875 32.078125 29.296875 
L 19.671875 29.296875 
L 19.671875 0 
L 9.8125 0 
z
" id="DejaVuSans-80"/>
      <path d="M 9.8125 72.90625 
L 19.671875 72.90625 
L 19.671875 0 
L 9.8125 0 
z
" id="DejaVuSans-73"/>
     </defs>
     <g transform="translate(335.561039 280.276563)scale(0.1 -0.1)">
      <use xlink:href="#DejaVuSans-71"/>
      <use x="77.490234" xlink:href="#DejaVuSans-82"/>
      <use x="146.972656" xlink:href="#DejaVuSans-32"/>
      <use x="178.759766" xlink:href="#DejaVuSans-65"/>
      <use x="247.167969" xlink:href="#DejaVuSans-80"/>
      <use x="307.470703" xlink:href="#DejaVuSans-73"/>
     </g>
    </g>
   </g>
   <g id="matplotlib.axis_8">
    <g id="ytick_16">
     <g id="line2d_29">
      <g>
       <use style="stroke:#000000;stroke-width:0.8;" x="316.017391" xlink:href="#m43946d7a51" y="242.116364"/>
      </g>
     </g>
    </g>
    <g id="ytick_17">
     <g id="line2d_30">
      <g>
       <use style="stroke:#000000;stroke-width:0.8;" x="316.017391" xlink:href="#m43946d7a51" y="195.051429"/>
      </g>
     </g>
    </g>
    <g id="ytick_18">
     <g id="line2d_31">
      <g>
       <use style="stroke:#000000;stroke-width:0.8;" x="316.017391" xlink:href="#m43946d7a51" y="147.986494"/>
      </g>
     </g>
    </g>
    <g id="ytick_19">
     <g id="line2d_32">
      <g>
       <use style="stroke:#000000;stroke-width:0.8;" x="316.017391" xlink:href="#m43946d7a51" y="100.921558"/>
      </g>
     </g>
    </g>
    <g id="ytick_20">
     <g id="line2d_33">
      <g>
       <use style="stroke:#000000;stroke-width:0.8;" x="316.017391" xlink:href="#m43946d7a51" y="53.856623"/>
      </g>
     </g>
    </g>
   </g>
   <g id="line2d_34">
    <path clip-path="url(#p4811bebdcb)" d="M 351.3861 242.116364 
L 342.226409 240.93974 
L 368.0424 239.763117 
L 360.392948 238.586494 
L 357.168678 237.40987 
L 355.720304 236.233247 
L 361.732148 235.056623 
L 346.076609 233.88 
L 355.927735 232.703377 
L 361.561109 231.526753 
L 352.914535 230.35013 
L 339.351496 229.173506 
L 339.642626 227.996883 
L 352.827196 226.82026 
L 357.179596 225.643636 
L 369.115943 224.467013 
L 355.188991 223.29039 
L 368.744752 222.113766 
L 362.572787 220.937143 
L 364.155809 219.760519 
L 361.117135 218.583896 
L 362.016 217.407273 
L 354.490278 216.230649 
L 359.137448 215.054026 
L 361.622974 213.877403 
L 343.158026 212.700779 
L 368.446343 211.524156 
L 348.190943 210.347532 
L 346.90997 209.170909 
L 353.296643 207.994286 
L 330.173609 206.817662 
L 337.098874 206.817662 
L 348.966078 205.641039 
L 354.879665 204.464416 
L 350.8839 203.287792 
L 357.761857 202.111169 
L 359.861635 200.934545 
L 360.978848 199.757922 
L 361.852239 198.581299 
L 360.112735 197.404675 
L 361.684839 196.228052 
L 353.595052 195.051429 
L 355.007035 193.874805 
L 357.023113 192.698182 
L 362.187039 190.344935 
L 353.726061 187.991688 
L 361.13897 186.815065 
L 350.8002 185.638442 
L 345.250526 184.461818 
L 341.942557 183.285195 
L 346.862661 182.108571 
L 347.57593 180.931948 
L 347.524983 179.755325 
L 353.514991 178.578701 
L 352.375943 177.402078 
L 360.724109 176.225455 
L 356.051465 175.048831 
L 359.595978 173.872208 
L 356.688313 172.695584 
L 357.478004 171.518961 
L 354.723183 170.342338 
L 342.768639 169.165714 
L 357.474365 167.989091 
L 336.250957 166.812468 
L 336.851413 165.635844 
L 344.944839 164.459221 
L 365.495009 162.105974 
L 370.455143 160.929351 
L 362.827526 159.752727 
L 363.4389 158.576104 
L 367.045278 157.399481 
L 364.166726 156.222857 
L 367.784022 155.046234 
L 362.285296 153.86961 
L 355.523791 152.692987 
L 351.502552 151.516364 
L 354.9852 150.33974 
L 355.178074 149.163117 
L 355.938652 147.751169 
L 368.828452 146.574545 
L 368.828452 145.397922 
L 356.691952 144.221299 
L 361.524717 143.044675 
L 352.288604 141.868052 
L 354.377465 140.691429 
L 351.709983 139.514805 
L 358.387787 138.338182 
L 359.534113 137.161558 
L 358.427817 135.984935 
L 359.974448 134.808312 
L 368.0424 133.631688 
L 356.852074 133.631688 
L 361.277257 132.455065 
L 359.053748 131.278442 
L 342.768639 130.101818 
L 361.612057 128.925195 
L 359.890748 127.748571 
L 353.303922 126.571948 
L 342.448396 125.395325 
L 344.821109 124.218701 
L 364.832687 123.042078 
L 364.48697 121.865455 
L 347.404891 120.688831 
L 361.069826 119.512208 
L 368.413591 118.335584 
L 358.780813 117.158961 
L 363.69 115.982338 
L 350.119683 114.805714 
L 359.643287 113.629091 
L 333.077635 112.452468 
L 342.644909 110.334545 
L 365.374917 109.157922 
L 344.406248 106.804675 
L 348.2892 105.628052 
L 336.101752 104.451429 
L 355.549265 102.098182 
L 359.523196 100.921558 
L 358.093017 99.744935 
L 356.055104 98.568312 
L 361.142609 97.391688 
L 355.512874 95.97974 
L 352.0557 94.803117 
L 359.224787 93.626494 
L 354.970643 92.44987 
L 345.90193 91.273247 
L 351.870104 90.096623 
L 340.639748 88.92 
L 359.79977 87.743377 
L 345.130435 86.566753 
L 339.176817 85.39013 
L 343.787596 84.213506 
L 357.590817 83.272208 
L 349.828552 82.095584 
L 330.2937 80.918961 
L 331.301739 79.742338 
L 334.595152 78.565714 
L 342.029896 77.389091 
L 342.608517 75.035844 
L 341.363935 73.859221 
L 360.025396 72.682597 
L 362.863917 71.505974 
L 346.334987 70.329351 
L 350.836591 69.152727 
L 359.111974 67.976104 
L 354.967004 66.799481 
L 358.678917 65.622857 
L 360.069065 64.446234 
L 363.071348 63.26961 
L 363.238748 62.092987 
L 360.072704 60.916364 
L 351.669952 59.73974 
L 346.73893 58.563117 
L 345.447039 57.386494 
L 356.469965 56.20987 
L 344.610039 55.033247 
L 370.291383 53.856623 
L 361.317287 52.68 
L 344.660987 51.503377 
L 343.736648 50.326753 
L 346.960917 49.15013 
L 343.787596 47.973506 
L 334.001974 46.796883 
L 337.895843 45.62026 
L 361.535635 44.443636 
L 361.535635 44.443636 
" style="fill:none;stroke:#000000;stroke-linecap:square;stroke-width:1.5;"/>
   </g>
   <g id="patch_18">
    <path d="M 316.017391 252 
L 316.017391 34.56 
" style="fill:none;stroke:#000000;stroke-linecap:square;stroke-linejoin:miter;stroke-width:0.8;"/>
   </g>
   <g id="patch_19">
    <path d="M 388.8 252 
L 388.8 34.56 
" style="fill:none;stroke:#000000;stroke-linecap:square;stroke-linejoin:miter;stroke-width:0.8;"/>
   </g>
   <g id="patch_20">
    <path d="M 316.017391 252 
L 388.8 252 
" style="fill:none;stroke:#000000;stroke-linecap:square;stroke-linejoin:miter;stroke-width:0.8;"/>
   </g>
   <g id="patch_21">
    <path d="M 316.017391 34.56 
L 388.8 34.56 
" style="fill:none;stroke:#000000;stroke-linecap:square;stroke-linejoin:miter;stroke-width:0.8;"/>
   </g>
   <g id="text_20">
    <!-- Section 1 -->
    <defs>
     <path d="M 53.515625 70.515625 
L 53.515625 60.890625 
Q 47.90625 63.578125 42.921875 64.890625 
Q 37.9375 66.21875 33.296875 66.21875 
Q 25.25 66.21875 20.875 63.09375 
Q 16.5 59.96875 16.5 54.203125 
Q 16.5 49.359375 19.40625 46.890625 
Q 22.3125 44.4375 30.421875 42.921875 
L 36.375 41.703125 
Q 47.40625 39.59375 52.65625 34.296875 
Q 57.90625 29 57.90625 20.125 
Q 57.90625 9.515625 50.796875 4.046875 
Q 43.703125 -1.421875 29.984375 -1.421875 
Q 24.8125 -1.421875 18.96875 -0.25 
Q 13.140625 0.921875 6.890625 3.21875 
L 6.890625 13.375 
Q 12.890625 10.015625 18.65625 8.296875 
Q 24.421875 6.59375 29.984375 6.59375 
Q 38.421875 6.59375 43.015625 9.90625 
Q 47.609375 13.234375 47.609375 19.390625 
Q 47.609375 24.75 44.3125 27.78125 
Q 41.015625 30.8125 33.5 32.328125 
L 27.484375 33.5 
Q 16.453125 35.6875 11.515625 40.375 
Q 6.59375 45.0625 6.59375 53.421875 
Q 6.59375 63.09375 13.40625 68.65625 
Q 20.21875 74.21875 32.171875 74.21875 
Q 37.3125 74.21875 42.625 73.28125 
Q 47.953125 72.359375 53.515625 70.515625 
z
" id="DejaVuSans-83"/>
     <path d="M 56.203125 29.59375 
L 56.203125 25.203125 
L 14.890625 25.203125 
Q 15.484375 15.921875 20.484375 11.0625 
Q 25.484375 6.203125 34.421875 6.203125 
Q 39.59375 6.203125 44.453125 7.46875 
Q 49.3125 8.734375 54.109375 11.28125 
L 54.109375 2.78125 
Q 49.265625 0.734375 44.1875 -0.34375 
Q 39.109375 -1.421875 33.890625 -1.421875 
Q 20.796875 -1.421875 13.15625 6.1875 
Q 5.515625 13.8125 5.515625 26.8125 
Q 5.515625 40.234375 12.765625 48.109375 
Q 20.015625 56 32.328125 56 
Q 43.359375 56 49.78125 48.890625 
Q 56.203125 41.796875 56.203125 29.59375 
z
M 47.21875 32.234375 
Q 47.125 39.59375 43.09375 43.984375 
Q 39.0625 48.390625 32.421875 48.390625 
Q 24.90625 48.390625 20.390625 44.140625 
Q 15.875 39.890625 15.1875 32.171875 
z
" id="DejaVuSans-101"/>
     <path d="M 48.78125 52.59375 
L 48.78125 44.1875 
Q 44.96875 46.296875 41.140625 47.34375 
Q 37.3125 48.390625 33.40625 48.390625 
Q 24.65625 48.390625 19.8125 42.84375 
Q 14.984375 37.3125 14.984375 27.296875 
Q 14.984375 17.28125 19.8125 11.734375 
Q 24.65625 6.203125 33.40625 6.203125 
Q 37.3125 6.203125 41.140625 7.25 
Q 44.96875 8.296875 48.78125 10.40625 
L 48.78125 2.09375 
Q 45.015625 0.34375 40.984375 -0.53125 
Q 36.96875 -1.421875 32.421875 -1.421875 
Q 20.0625 -1.421875 12.78125 6.34375 
Q 5.515625 14.109375 5.515625 27.296875 
Q 5.515625 40.671875 12.859375 48.328125 
Q 20.21875 56 33.015625 56 
Q 37.15625 56 41.109375 55.140625 
Q 45.0625 54.296875 48.78125 52.59375 
z
" id="DejaVuSans-99"/>
     <path d="M 18.3125 70.21875 
L 18.3125 54.6875 
L 36.8125 54.6875 
L 36.8125 47.703125 
L 18.3125 47.703125 
L 18.3125 18.015625 
Q 18.3125 11.328125 20.140625 9.421875 
Q 21.96875 7.515625 27.59375 7.515625 
L 36.8125 7.515625 
L 36.8125 0 
L 27.59375 0 
Q 17.1875 0 13.234375 3.875 
Q 9.28125 7.765625 9.28125 18.015625 
L 9.28125 47.703125 
L 2.6875 47.703125 
L 2.6875 54.6875 
L 9.28125 54.6875 
L 9.28125 70.21875 
z
" id="DejaVuSans-116"/>
     <path d="M 9.421875 54.6875 
L 18.40625 54.6875 
L 18.40625 0 
L 9.421875 0 
z
M 9.421875 75.984375 
L 18.40625 75.984375 
L 18.40625 64.59375 
L 9.421875 64.59375 
z
" id="DejaVuSans-105"/>
     <path d="M 30.609375 48.390625 
Q 23.390625 48.390625 19.1875 42.75 
Q 14.984375 37.109375 14.984375 27.296875 
Q 14.984375 17.484375 19.15625 11.84375 
Q 23.34375 6.203125 30.609375 6.203125 
Q 37.796875 6.203125 41.984375 11.859375 
Q 46.1875 17.53125 46.1875 27.296875 
Q 46.1875 37.015625 41.984375 42.703125 
Q 37.796875 48.390625 30.609375 48.390625 
z
M 30.609375 56 
Q 42.328125 56 49.015625 48.375 
Q 55.71875 40.765625 55.71875 27.296875 
Q 55.71875 13.875 49.015625 6.21875 
Q 42.328125 -1.421875 30.609375 -1.421875 
Q 18.84375 -1.421875 12.171875 6.21875 
Q 5.515625 13.875 5.515625 27.296875 
Q 5.515625 40.765625 12.171875 48.375 
Q 18.84375 56 30.609375 56 
z
" id="DejaVuSans-111"/>
     <path d="M 54.890625 33.015625 
L 54.890625 0 
L 45.90625 0 
L 45.90625 32.71875 
Q 45.90625 40.484375 42.875 44.328125 
Q 39.84375 48.1875 33.796875 48.1875 
Q 26.515625 48.1875 22.3125 43.546875 
Q 18.109375 38.921875 18.109375 30.90625 
L 18.109375 0 
L 9.078125 0 
L 9.078125 54.6875 
L 18.109375 54.6875 
L 18.109375 46.1875 
Q 21.34375 51.125 25.703125 53.5625 
Q 30.078125 56 35.796875 56 
Q 45.21875 56 50.046875 50.171875 
Q 54.890625 44.34375 54.890625 33.015625 
z
" id="DejaVuSans-110"/>
    </defs>
    <g transform="translate(324.391508 28.56)scale(0.12 -0.12)">
     <use xlink:href="#DejaVuSans-83"/>
     <use x="63.476562" xlink:href="#DejaVuSans-101"/>
     <use x="125" xlink:href="#DejaVuSans-99"/>
     <use x="179.980469" xlink:href="#DejaVuSans-116"/>
     <use x="219.189453" xlink:href="#DejaVuSans-105"/>
     <use x="246.972656" xlink:href="#DejaVuSans-111"/>
     <use x="308.154297" xlink:href="#DejaVuSans-110"/>
     <use x="371.533203" xlink:href="#DejaVuSans-32"/>
     <use x="403.320312" xlink:href="#DejaVuSans-49"/>
    </g>
   </g>
  </g>
 </g>
 <defs>
  <clipPath id="p13c860cac2">
   <rect height="217.44" width="72.782609" x="54" y="34.56"/>
  </clipPath>
  <clipPath id="p4959d0fc97">
   <rect height="217.44" width="72.782609" x="141.33913" y="34.56"/>
  </clipPath>
  <clipPath id="p34ed62ec58">
   <rect height="217.44" width="72.782609" x="228.678261" y="34.56"/>
  </clipPath>
  <clipPath id="p4811bebdcb">
   <rect height="217.44" width="72.782609" x="316.017391" y="34.56"/>
  </clipPath>
 </defs>
</svg>
